<svg width="75" height="75" viewBox="0 0 75 75" fill="none" xmlns="http://www.w3.org/2000/svg">
<path d="M40.625 6.24961C33.2355 5.53997 25.8348 7.48407 19.7481 11.7337C13.6614 15.9834 9.28634 22.2611 7.40637 29.4425C5.52641 36.624 6.26436 44.2402 9.48806 50.9271C12.7118 57.6141 18.2107 62.935 25 65.9371C28.932 67.7152 33.1854 68.6722 37.5 68.7496C44.3687 68.7502 51.0462 66.4877 56.5 62.3121C57.1582 61.8102 57.5904 61.0676 57.7017 60.2474C57.813 59.4272 57.5944 58.5963 57.0937 57.9371C56.845 57.6067 56.5331 57.329 56.1762 57.1201C55.8193 56.9111 55.4245 56.7751 55.0146 56.7199C54.6048 56.6646 54.188 56.6913 53.7886 56.7983C53.3891 56.9054 53.0148 57.0906 52.6875 57.3434C49.4465 59.7915 45.6578 61.4131 41.6492 62.0678C37.6406 62.7226 33.5328 62.3908 29.6813 61.1011C25.8297 59.8114 22.3504 57.6028 19.5443 54.6662C16.7383 51.7296 14.69 48.1535 13.5767 44.2473C12.4633 40.3412 12.3185 36.2226 13.1547 32.2478C13.991 28.2731 15.783 24.562 18.3759 21.4356C20.9688 18.3092 24.2844 15.8616 28.0358 14.3045C31.7872 12.7475 35.8616 12.128 39.9062 12.4996C46.1835 13.2261 51.9682 16.2547 56.1416 20.9996C60.3151 25.7445 62.5806 31.8685 62.5 38.1871V40.3121C62.4964 41.03 62.3482 41.7399 62.0642 42.3992C61.7802 43.0586 61.3662 43.6539 60.8471 44.1498C60.3279 44.6456 59.7141 45.0318 59.0424 45.2852C58.3707 45.5386 57.6548 45.654 56.9375 45.6246C55.5069 45.4676 54.1891 44.774 53.2496 43.6838C52.3102 42.5935 51.819 41.1877 51.875 39.7496V26.2496C51.875 25.4208 51.5457 24.626 50.9597 24.0399C50.3736 23.4539 49.5788 23.1246 48.75 23.1246C47.987 23.1181 47.248 23.391 46.6723 23.8919C46.0967 24.3927 45.7242 25.0868 45.625 25.8434C42.7167 23.1045 38.8699 21.5837 34.875 21.5934C32.1599 21.6137 29.4953 22.3287 27.1347 23.6703C24.7742 25.0119 22.7964 26.9354 21.3896 29.2577C19.9828 31.58 19.1939 34.2237 19.0979 36.9371C19.002 39.6506 19.6022 42.3434 20.8415 44.7592C22.0808 47.1751 23.9178 49.2334 26.1777 50.7384C28.4376 52.2434 31.0451 53.1448 33.7519 53.3568C36.4588 53.5689 39.1749 53.0845 41.6415 51.9499C44.1082 50.8152 46.2434 49.068 47.8437 46.8746C48.7508 48.2778 49.9591 49.4614 51.3807 50.3393C52.8023 51.2172 54.4017 51.7674 56.0625 51.9499C57.7234 52.1325 59.4041 51.9428 60.9825 51.3946C62.5608 50.8464 63.9973 49.9536 65.1875 48.7809C66.333 47.6911 67.2408 46.3762 67.8538 44.9188C68.4669 43.4614 68.772 41.893 68.75 40.3121V38.1871C68.8199 30.3339 65.9881 22.7314 60.7978 16.8374C55.6075 10.9435 48.424 7.17324 40.625 6.24961V6.24961ZM34.9375 47.1559C33.0277 47.1559 31.1607 46.5895 29.5728 45.5285C27.9848 44.4675 26.7471 42.9594 26.0163 41.1949C25.2854 39.4305 25.0942 37.4889 25.4668 35.6158C25.8394 33.7426 26.759 32.0221 28.1095 30.6716C29.4599 29.3212 31.1805 28.4015 33.0537 28.0289C34.9268 27.6563 36.8683 27.8475 38.6328 28.5784C40.3972 29.3093 41.9053 30.5469 42.9664 32.1349C44.0274 33.7229 44.5937 35.5898 44.5937 37.4996C44.5855 40.0581 43.5655 42.5094 41.7564 44.3185C39.9473 46.1276 37.496 47.1476 34.9375 47.1559V47.1559Z" fill="#F4F4F4"/>
</svg>
