<svg width="75" height="75" viewBox="0 0 75 75" fill="none" xmlns="http://www.w3.org/2000/svg">
<path d="M37.5 3.12529C28.4796 3.03363 19.7918 6.52719 13.346 12.8382C6.90027 19.1492 3.22394 27.7612 3.125 36.7815C3.15976 43.9102 5.45295 50.8444 9.6752 56.5883C13.8974 62.3321 19.8315 66.59 26.625 68.7503C28.3438 69.0628 28.9688 68.0315 28.9688 67.1253C28.9688 66.219 28.9688 64.219 28.9688 61.4065C19.4063 63.4378 17.375 56.9065 17.375 56.9065C16.7384 54.8562 15.3851 53.1036 13.5625 51.969C10.4375 49.9065 13.8125 49.9378 13.8125 49.9378C14.8927 50.0822 15.9261 50.4693 16.8353 51.07C17.7446 51.6708 18.506 52.4696 19.0625 53.4065C20.0323 55.0882 21.6235 56.3218 23.4938 56.842C25.364 57.3621 27.3637 57.1272 29.0625 56.1878C29.2372 54.4765 30.0122 52.8823 31.25 51.6878C23.625 50.844 15.625 47.969 15.625 35.0628C15.5568 31.6962 16.8008 28.435 19.0938 25.969C18.0495 23.0786 18.1728 19.895 19.4375 17.094C19.4375 17.094 22.3438 16.1878 28.8125 20.5315C34.4434 19.031 40.3691 19.031 46 20.5315C52.5625 16.1878 55.375 17.094 55.375 17.094C56.6397 19.895 56.763 23.0786 55.7187 25.969C58.065 28.3898 59.3764 31.6291 59.375 35.0003C59.375 47.9378 51.3125 50.7815 43.75 51.6253C44.5781 52.4293 45.2177 53.4067 45.623 54.4874C46.0282 55.568 46.189 56.7251 46.0938 57.8753V67.094C46.0938 67.094 46.7187 69.0628 48.4375 68.719C55.2117 66.5453 61.1258 62.2864 65.335 56.5507C69.5442 50.815 71.8331 43.8959 71.875 36.7815C71.7761 27.7612 68.0997 19.1492 61.654 12.8382C55.2082 6.52719 46.5204 3.03363 37.5 3.12529" fill="#F4F4F4"/>
</svg>
