<svg width="75" height="75" viewBox="0 0 75 75" fill="none" xmlns="http://www.w3.org/2000/svg">
<path d="M47.3438 26.2496C44.9486 26.2414 42.5754 26.7055 40.3598 27.6155C38.1442 28.5254 36.1298 29.8633 34.4318 31.5526C32.7338 33.2419 31.3856 35.2494 30.4643 37.4602C29.5429 39.6711 29.0666 42.042 29.0625 44.4371V62.8121C29.0625 63.558 29.3588 64.2734 29.8863 64.8009C30.4137 65.3283 31.1291 65.6246 31.875 65.6246H38.4375C39.1834 65.6246 39.8988 65.3283 40.4263 64.8009C40.9537 64.2734 41.25 63.558 41.25 62.8121V44.4371C41.2494 43.5853 41.4283 42.7428 41.7751 41.9647C42.1219 41.1866 42.6288 40.4904 43.2627 39.9213C43.8966 39.3523 44.6434 38.9232 45.4542 38.6621C46.2651 38.401 47.1219 38.3137 47.9688 38.4059C49.4875 38.5972 50.8833 39.3392 51.8913 40.4912C52.8993 41.6432 53.4495 43.1251 53.4375 44.6559V62.8121C53.4375 63.558 53.7338 64.2734 54.2613 64.8009C54.7887 65.3283 55.5041 65.6246 56.25 65.6246H62.8125C63.5584 65.6246 64.2738 65.3283 64.8013 64.8009C65.3287 64.2734 65.625 63.558 65.625 62.8121V44.4371C65.6209 42.042 65.1446 39.6711 64.2233 37.4602C63.3019 35.2494 61.9537 33.2419 60.2557 31.5526C58.5578 29.8633 56.5433 28.5254 54.3278 27.6155C52.1122 26.7055 49.7389 26.2414 47.3438 26.2496Z" fill="#F4F4F4"/>
<path d="M20.625 29.0625H12.1875C10.6342 29.0625 9.375 30.3217 9.375 31.875V62.8125C9.375 64.3658 10.6342 65.625 12.1875 65.625H20.625C22.1783 65.625 23.4375 64.3658 23.4375 62.8125V31.875C23.4375 30.3217 22.1783 29.0625 20.625 29.0625Z" fill="#F4F4F4"/>
<path d="M16.4063 23.4375C20.2895 23.4375 23.4375 20.2895 23.4375 16.4063C23.4375 12.523 20.2895 9.375 16.4063 9.375C12.523 9.375 9.375 12.523 9.375 16.4063C9.375 20.2895 12.523 23.4375 16.4063 23.4375Z" fill="#F4F4F4"/>
</svg>
